<svg id="Layer_1" data-name="Layer 1" xmlns="http://www.w3.org/2000/svg" viewBox="0 0 754.2 136.74"><defs><style>.cls-1{fill:#9b1915;}.cls-2{fill:gray;}</style></defs><title>m2Square logo original vector copia</title><path class="cls-1" d="M160.21,327.29c0,1.66-.3,2.11-2.12,2.11h-24.8c-1.82,0-2.12-.45-2.12-2.11V280.7c0-5.75-.6-12.71-6.35-12.71-6.36,0-11,4.39-13,6.2v41.14h7.71c1.82,0,2.12.46,2.12,2.12v9.84c0,1.66-.3,2.11-2.12,2.11H94.72c-1.82,0-2.12-.45-2.12-2.11V280.7C92.6,275,92,268,86.25,268c-6.36,0-11,4.39-13,6.2v41.14H81c1.82,0,2.12.46,2.12,2.12v9.84c0,1.66-.3,2.11-2.12,2.11H46.31c-1.81,0-2.11-.45-2.11-2.11v-9.84c0-1.66.3-2.12,2.11-2.12H54V281.6c0-7.56-.61-9.68-1.51-12.85H45.25c-1.81,0-2.11-.61-2.11-2.12V256.8c0-1.67.3-2.12,2.11-2.12h21c3.63,0,4.08,4.54,4.84,7.87,4.54-3.94,11.19-10.44,23.14-10.44,6.51,0,13.62,4.08,15.43,10.44,4.54-3.94,11-10.44,23.14-10.44,14.22,0,17.55,10.74,17.55,23.9v39.32h7.71c1.82,0,2.12.46,2.12,2.12Z" transform="translate(-43.14 -223.22)"/><path class="cls-1" d="M250.06,326.23c0,2.72-.46,3.17-3,3.17h-54.6c-1.51,0-2-.3-2-2.57,0-17.54,1.52-19.21,4.69-25.71,9.53-20.27,37.66-25.11,37.66-45.84,0-8.92-4.84-13.15-12.4-13.15-14.22,0-13.76,15.58-17.54,15.58a3.51,3.51,0,0,1-1.67-.46l-9.68-3.63a2.45,2.45,0,0,1-1.66-2.27c0-5.9,8.62-25.56,32.37-25.56,18,0,28.74,10.13,28.74,28.74,0,22.69-15.89,30.25-28.74,40.84-9.08,7.56-10.14,10.74-10.74,16.64H247c2.73,0,3,.6,3,3.17Z" transform="translate(-43.14 -223.22)"/><path class="cls-2" d="M328.71,241.52a27.72,27.72,0,0,0-10.13-2c-7,0-14.22,2.73-14.22,11.8,0,11.5,17.7,13.62,31,23.45,7.71,5.75,13,13.76,13,25.26,0,19.21-13.62,31.91-32.67,31.91-11.35,0-31.16-3.63-31.16-10.28V298.85c0-2,.45-2.57,2.57-2.57h11.19c2.12,0,2.57.45,2.57,2.57v13.76c2.27.76,7.72,3,14.22,3,8.47,0,13.61-4.54,13.61-13.92,0-13.46-15.42-14.82-30.85-24.2-8-4.84-13.16-10.89-13.16-23.45,0-21.78,15.73-30.85,33.27-30.85,10.59,0,27.08,3.93,27.08,10v20.42c0,2.12-.6,2.57-2.57,2.57H331.29c-2.12,0-2.58-.45-2.58-2.57Z" transform="translate(-43.14 -223.22)"/><path class="cls-2" d="M447,357.84c0,1.66-.3,2.12-2.12,2.12H410.24c-1.81,0-2.12-.46-2.12-2.12V348c0-1.67.31-2.12,2.12-2.12H418V328c-3.18,1.66-7,3.93-15.73,3.93-19.67,0-27.84-14.82-27.84-41.29,0-25.41,9.38-38.57,26.17-38.57,12.25,0,17.09,5,20.12,7.71.15-1.36,3.33-7.71,5.6-7.71a12.06,12.06,0,0,1,2.26.45l11.2,3.78c.75.31,1.81.91,1.81,1.82,0,1.81-4.38,5.29-4.38,23.75v64h7.71c1.82,0,2.12.45,2.12,2.12ZM418,273a16.81,16.81,0,0,0-12.1-5c-9.38,0-12.26,8.62-12.26,23.45,0,17.85,2.73,25.41,13.31,25.41,5.9,0,8.32-1.36,11-2.88Z" transform="translate(-43.14 -223.22)"/><path class="cls-2" d="M544.26,327.29c0,1.66-.3,2.11-2.12,2.11H522c-3.63,0-3.78-3.78-4.84-7.11-4.53,3.94-8.47,9.68-23.14,9.68-16,0-19.66-10.74-19.66-23.9V268.75h-7.72c-1.81,0-2.12-.46-2.12-2.12V256.8c0-1.67.31-2.12,2.12-2.12h24.81c1.81,0,2.12.45,2.12,2.12v46.59c0,5.74.75,13.46,8.47,13.46,6.35,0,11-4.39,13-6.2v-41.9h-7.72c-1.81,0-2.12-.46-2.12-2.12V256.8c0-1.67.31-2.12,2.12-2.12h24.81c1.81,0,2.12.45,2.12,2.12v45.68c0,7.56.6,9.68,1.51,12.85h6.35c1.82,0,2.12.61,2.12,2.12Z" transform="translate(-43.14 -223.22)"/><path class="cls-2" d="M626.54,302.63a42.26,42.26,0,0,0,1.51,12.7h6.51c1.66,0,2.12.46,2.12,2.12v9.84c0,1.66-.31,2.11-2.12,2.11H615.65c-3.63,0-3.93-3.78-4.54-6.5-3,3-8.32,9.07-19.51,9.07-13.92,0-22.69-9.07-22.69-23.29,0-25.56,27.53-25.56,39.48-25.56v-4.69c0-6.81-1.21-11.2-10.74-11.2-8.47,0-16.79,4.54-18.76,4.54-.75,0-1.36-.91-1.51-1.51l-3-9.23a8,8,0,0,1-.46-1.81c0-3.48,15-7.11,26.63-7.11,18.9,0,26,8.62,26,24.35Zm-18.15-7.11c-3.78,0-21.33-1.21-21.33,12.1,0,5.9,4.24,10.29,10,10.29,5.59,0,9.53-3.94,11.34-5.75Z" transform="translate(-43.14 -223.22)"/><path class="cls-2" d="M700.05,327.29c0,1.66-.3,2.11-2.11,2.11h-35.1c-1.81,0-2.11-.45-2.11-2.11v-9.84c0-1.66.3-2.12,2.11-2.12h7.72V281.6a41.93,41.93,0,0,0-1.51-12.85h-7.26c-1.82,0-2.12-.46-2.12-2.12V256.8c0-1.67.3-2.12,2.12-2.12h19.66c3.93,0,4.54,5.6,5.6,9.38,2.87-3.48,8.47-11.95,18.75-11.95,4.39,0,8.78,1.51,8.78,3.48a3.8,3.8,0,0,1-.31,1.51l-4.69,12.71c-.15.45-.6,1.36-1.21,1.36-.9,0-3.63-1.67-7.11-1.67-4.68,0-9.53,5.15-11.49,7.26v38.57h8.17c1.81,0,2.11.46,2.11,2.12Z" transform="translate(-43.14 -223.22)"/><path class="cls-2" d="M753.17,297.18c0,8.47,2.42,18.91,16.64,18.91,10.89,0,17.09-5,19.21-5a2,2,0,0,1,1.66,1.21l3.79,9.08a5.3,5.3,0,0,1,.45,1.66c0,3.93-15.13,8.92-27.08,8.92-20,0-33.88-11.34-33.88-39.17,0-24.05,12.86-40.69,33.13-40.69,25.71,0,30.25,23,30.25,41.29,0,2.88-.6,3.78-3.48,3.78Zm23.75-14.06c0-6.2-.45-16.94-10.89-16.94-11.8,0-12.4,12.7-12.86,16.94Z" transform="translate(-43.14 -223.22)"/></svg>